<?xml version="1.0" encoding="UTF-8"?>
<svg id="Layer_1" data-name="Layer 1" xmlns="http://www.w3.org/2000/svg" viewBox="0 0 512 512">
  <defs>
    <style>
      .cls-1 {
        fill: #000;
        stroke-width: 0px;
      }
    </style>
  </defs>
  <path class="cls-1" d="M170,263.32c.86-14,5.39-26.61,12.91-37.67,8.09-11.9,16.83-23.64,26.92-33.83,20.04-20.23,49.03-20.04,71.24-1.25,14.78,12.51,22.81,29.15,29.76,46.55,6.11,15.3,11.59,31.05,22.66,43.61,8.57,9.71,18.25,18.43,27.35,27.68,7.74,7.87,14.16,16.58,18.67,26.83,9.17,20.86-4.68,61.69-39.99,63.14-11.82.49-22.98-2.75-32.79-8.95-16.15-10.22-31.84-21.19-47.53-32.12-17.74-12.37-35.32-24.98-52.88-37.61-14.28-10.28-26.39-22.49-32.26-39.58-1.86-5.42-2.75-11.19-4.08-16.8Z"/>
  <path class="cls-1" d="M251.52,149.87c.07,17.21-12.98,24.89-28.08,16.52-13.06-7.24-21.42-23.46-19.44-37.67,1.62-11.58,10.89-17.56,22.1-14.24,13.89,4.11,25.35,20.07,25.42,35.4Z"/>
  <path class="cls-1" d="M185.06,148.72c11.08.06,22.63,12.28,22.14,23.43-.34,7.68-6.18,12.46-13.78,11.29-10.09-1.55-19.1-11.07-20.17-21.29-.8-7.67,4.29-13.46,11.81-13.42Z"/>
  <path class="cls-1" d="M170.71,213.09c-9.66-.16-19.16-7.37-21.97-16.68-2.64-8.77,2.28-15.79,11.4-16.24,9.57-.48,20.79,7.96,23.09,17.35,2.29,9.33-2.86,15.73-12.53,15.58Z"/>
  <path class="cls-1" d="M144.62,215.46c8.88.04,17.83,6.4,20.22,14.38,2.33,7.75-1.92,13.86-10.01,13.98-9.18.13-16.05-4.23-20.25-12.17-4.63-8.74.2-16.23,10.04-16.19Z"/>
  <path class="cls-1" d="M145.85,274.7c-8.78.02-16.08-6.44-16.12-14.24-.03-6.38,5.05-10.86,12.24-10.81,8.51.06,16.03,6.95,15.89,14.57-.11,6.23-4.97,10.47-12.02,10.48Z"/>
</svg>