<?xml version="1.0" encoding="UTF-8"?>
<svg id="Layer_1" data-name="Layer 1" xmlns="http://www.w3.org/2000/svg" viewBox="0 0 512 512">
  <defs>
    <style>
      .cls-1 {
        fill: #000;
        stroke-width: 0px;
      }
    </style>
  </defs>
  <path class="cls-1" d="M132.85,356.99c.04-15.58,5.79-26.19,13.12-36.07,3.76-5.07,7.71-10.11,12.26-14.44,19.23-18.34,31.19-40.68,38.31-66.08,4.14-14.76,9.65-29.09,19.44-41.27,10.93-13.59,24.24-23.19,42.26-24.59,11.59-.9,22.24,2.23,31.52,8.97,18.21,13.23,32.43,29.98,42.49,50.17,10.42,20.92,7.13,40.61-5.38,59.44-7.29,10.97-17.24,19.34-27.34,27.53-25.6,20.75-51.01,41.75-76.96,62.05-8.02,6.28-17.07,11.83-26.48,15.64-25.68,10.4-50.61-1.43-59.84-27.6-1.86-5.27-2.7-10.91-3.39-13.77Z"/>
  <path class="cls-1" d="M250.06,146.78c-.15-15.86,11.18-32.21,25.04-36.14,9.25-2.61,17.58,1.75,20.63,10.8,5.4,16.01-6.47,39.37-22.59,44.46-13.05,4.12-22.94-4.07-23.09-19.13Z"/>
  <path class="cls-1" d="M333.63,206.06c-9.11,0-14.18-6.71-11.91-15.78,2.36-9.4,12.03-17.36,21.71-17.86,8.24-.42,13.54,5.16,12.75,13.43-1.01,10.5-11.83,20.2-22.56,20.21Z"/>
  <path class="cls-1" d="M296.05,165.67c.03-11.27,10.25-22.57,20.77-22.97,6.66-.25,11.12,3.43,12.06,9.96,1.56,10.93-8.34,23.94-19.27,25.32-8.39,1.05-13.58-3.66-13.56-12.31Z"/>
  <path class="cls-1" d="M352.73,235.66c-8.22.01-12.83-6.14-10.5-14.02,2.83-9.54,13.76-16.67,23.05-15.02,6.04,1.07,9.39,5.95,8.23,11.99-1.75,9.13-11.4,17.04-20.78,17.05Z"/>
  <path class="cls-1" d="M367.8,240.66c7.17.17,11.5,4.34,11.34,10.91-.19,7.68-7.78,14.42-16.19,14.36-6.87-.05-11.73-4.59-11.66-10.88.1-8.02,7.65-14.6,16.5-14.39Z"/>
</svg>