<?xml version="1.0" encoding="UTF-8"?>
<svg id="Layer_1" data-name="Layer 1" xmlns="http://www.w3.org/2000/svg" viewBox="0 0 512 512">
  <defs>
    <style>
      .cls-1 {
        fill: #000;
        stroke-width: 0px;
      }
    </style>
  </defs>
  <path class="cls-1" d="M307.91,177.39c-.52,11.96-1.16,23.93-1.49,35.9-.08,2.75.47,5.69,1.46,8.26,1.57,4.06,5.59,4.54,8.17.99,1.62-2.24,2.82-4.92,3.65-7.59,2.06-6.67,3.63-13.5,5.74-20.15,1.09-3.46,2.65-6.84,4.47-9.97,2.27-3.9,5.82-5.95,10.51-4.98,4.93,1.01,9.1,3.53,9.51,8.85.4,5.22.14,10.64-.85,15.78-1.82,9.46-4.86,18.7-6.43,28.19-.81,4.9-.27,10.3.87,15.19,3.61,15.37,8.68,30.43,11.55,45.92,4.93,26.62-4.09,44.38-27.67,57.87-1.59.91-3.12,1.99-4.82,2.61-11.38,4.14-22.63,8.77-34.24,12.09-15.93,4.55-29.9,0-42.74-10.35-10.58-8.53-21.62-16.76-33.4-23.46-9.4-5.35-20.1-8.56-30.45-12.05-7.3-2.46-14.6-4.64-20.39-10-3.98-3.68-6.71-8.03-5.35-13.7,1.33-5.56,5.81-7.92,10.84-9.15,11.24-2.75,22.05-.28,32.92,2.62,5.2,1.39,10.73,2.33,16.07,2.16,6.43-.21,10.22-5.23,8.45-11.42-1.75-6.12-4.21-12.41-7.9-17.52-10.4-14.43-21.75-28.18-32.38-42.46-3.54-4.76-6.45-10.1-8.93-15.51-2.85-6.24-1.67-11.48,2.29-14.57,4.4-3.44,10.01-3.19,15.55,1.31,3.45,2.81,6.52,6.16,9.46,9.54,5.13,5.9,9.91,12.11,15.09,17.96,2.18,2.46,4.71,5.09,7.63,6.27,3.1,1.24,7.61,2.16,10.08.74,1.97-1.13,3.07-6.32,2.34-9.14-2.88-11.08-6.77-21.89-10.01-32.89-2.21-7.48-4.05-15.07-5.86-22.66-.49-2.06-.48-4.31-.32-6.44.38-5.13,2.16-9.42,7.65-11.1,5.03-1.54,9.68-.31,12.93,4.95,3.37,5.47,6.29,11.4,8.24,17.51,3.64,11.4,6.31,23.11,9.64,34.62,1.29,4.45,2.91,8.88,5.03,12.98,3,5.78,9.03,5.94,11.88.03,2.26-4.68,3.64-10.02,4.26-15.2,1.39-11.55,1.96-23.2,3.09-34.79.3-3.11,1.19-6.22,2.21-9.19,1.61-4.68,4.36-8.37,9.99-8.19,5.44.18,8.82,3.48,9.78,8.43,1.38,7.12,1.97,14.4,2.89,21.61-.33.04-.66.07-1,.11Z"/>
</svg>