<?xml version="1.0" encoding="UTF-8"?>
<svg id="Layer_1" data-name="Layer 1" xmlns="http://www.w3.org/2000/svg" viewBox="0 0 512 512">
  <defs>
    <style>
      .cls-1 {
        fill: #000;
        stroke-width: 0px;
      }
    </style>
  </defs>
  <path class="cls-1" d="M201.86,211.26c-1.07-13.76-2.32-27.5-3.09-41.27-.23-4.07.5-8.31,1.44-12.31,1.15-4.88,4.13-8.33,9.62-8.64,5.39-.3,8.75,2.88,9.88,7.5,2.12,8.67,3.6,17.52,5.04,26.34,1.23,7.54,1.93,15.17,3.05,22.73.34,2.27,1.13,4.52,2.02,6.66,1.5,3.63,3.45,7.1,7.99,7.26,4.71.17,6.23-3.75,7.14-7.15,3.48-12.98,6.42-26.11,9.84-39.11,1.65-6.25,3.75-12.4,6.01-18.46.97-2.59,2.67-4.99,4.4-7.19,2.93-3.7,6.84-5.16,11.55-3.98,4.84,1.22,7.55,4.72,7.71,9.31.2,5.76.11,11.74-1.24,17.3-3.13,12.91-7.15,25.6-10.65,38.43-.91,3.34-1.59,6.83-1.74,10.28-.35,7.7,5.05,11.08,11.63,6.98,3.87-2.41,7.3-5.81,10.25-9.33,5.56-6.62,10.42-13.82,15.98-20.45,2.73-3.25,6.11-6.14,9.67-8.48,3.71-2.44,7.92-2.2,11.74.44,3.59,2.48,5.18,6.34,3.74,10.05-2.98,7.66-6.08,15.49-10.56,22.32-8.49,12.92-18.14,25.07-26.99,37.75-3.12,4.46-5.62,9.43-7.86,14.41-2.3,5.12-3.81,10.88.59,15.49,4.54,4.76,10.68,3.75,16.41,2.36,8.86-2.15,17.55-5.21,26.52-6.58,5.19-.8,11.01.17,16.11,1.74,7.91,2.44,10.22,10.33,5.81,17.37-4.5,7.19-11.53,11.19-19.31,13.31-24.38,6.62-45.34,19.19-63.17,36.67-16.04,15.72-34.02,19.16-55.02,12.65-13.07-4.05-25.93-8.28-37.64-15.57-17.07-10.63-24.29-26.58-22.5-45.77,1.44-15.45,4.83-30.85,8.8-45.9,2.98-11.3,2.69-21.78-.76-32.74-2.83-9-5.11-18.23-6.72-27.51-.59-3.38.52-7.85,2.48-10.72,4.22-6.19,13.93-5.81,17.56.8,3.48,6.33,5.59,13.42,8.26,20.19,2,5.09,3.63,10.35,6.05,15.22.83,1.67,3.95,3.66,5.32,3.23,1.84-.57,3.75-3.15,4.28-5.22.85-3.32.6-6.92.81-10.4-.14,0-.29,0-.43,0Z"/>
</svg>